 <svg  version="1.0" xmlns="http://www.w3.org/2000/svg"  width="900.000000pt" height="900.000000pt" viewBox="0 0 900.000000 900.000000"  preserveAspectRatio="xMidYMid meet">  <g transform="translate(0.000000,900.000000) scale(0.100000,-0.100000)" fill="#e0f2f1" stroke="none"> <path d="M4220 7915 c-167 -13 -298 -31 -387 -51 -34 -8 -72 -14 -84 -14 -12 0 -47 -7 -78 -16 -31 -8 -81 -22 -111 -30 -30 -9 -75 -22 -100 -30 -25 -8 -53 -14 -62 -14 -10 0 -32 -6 -50 -14 -18 -8 -51 -21 -73 -29 -129 -48 -186 -73 -385 -171 -69 -34 -143 -73 -165 -87 -22 -14 -47 -29 -55 -33 -77 -36 -336 -227 -485 -357 -105 -91 -199 -186 -301 -304 -67 -77 -274 -350 -274 -360 0 -4 -13 -24 -30 -45 -16 -21 -30 -40 -30 -43 0 -4 -12 -23 -26 -44 -14 -21 -30 -47 -35 -58 -5 -11 -19 -35 -30 -54 -57 -94 -140 -276 -194 -421 -60 -164 -66 -180 -75 -220 -4 -19 -13 -48 -18 -65 -16 -44 -39 -140 -56 -230 -8 -44 -20 -107 -26 -140 -11 -58 -19 -111 -40 -267 -25 -190 -5 -699 35 -879 8 -37 15 -76 15 -88 0 -43 103 -417 137 -498 7 -17 13 -35 13 -40 0 -16 92 -228 149 -343 69 -139 114 -220 152 -278 16 -24 29 -47 29 -52 0 -4 3 -10 8 -12 4 -1 25 -30 47 -63 47 -71 184 -256 200 -270 6 -5 36 -39 66 -75 99 -120 213 -232 375 -370 41 -36 180 -140 239 -180 28 -18 77 -52 110 -74 33 -22 69 -46 80 -52 11 -5 55 -30 98 -53 89 -48 142 -75 242 -121 39 -17 88 -40 110 -50 87 -40 141 -63 170 -70 28 -8 51 -15 135 -45 97 -35 373 -105 412 -105 12 0 55 -6 93 -14 185 -39 592 -58 750 -35 39 5 115 14 170 19 217 19 530 85 653 136 18 8 41 14 52 14 10 0 21 4 25 9 3 5 20 13 38 17 17 3 45 13 62 20 363 157 638 314 900 512 374 283 746 745 964 1197 79 163 82 171 136 315 47 126 62 174 119 390 86 327 126 812 92 1116 -22 200 -51 371 -93 539 -24 99 -69 253 -84 290 -9 22 -36 96 -48 135 -5 14 -21 53 -36 85 -49 109 -116 250 -126 265 -5 8 -20 38 -35 65 -120 231 -312 491 -549 744 -65 69 -271 251 -284 251 -4 0 -20 11 -34 24 -50 46 -269 206 -282 206 -2 0 -23 13 -47 29 -69 45 -262 148 -373 197 -16 7 -57 25 -90 40 -32 15 -71 30 -85 35 -14 4 -50 17 -80 29 -30 12 -76 28 -103 35 -26 8 -71 21 -100 30 -46 14 -105 29 -217 55 -304 71 -677 95 -1040 65z m605 -105 c39 -5 113 -14 165 -19 91 -10 117 -15 255 -46 33 -8 76 -17 95 -21 63 -11 349 -104 420 -136 25 -11 70 -31 100 -45 287 -129 516 -269 755 -460 120 -96 320 -290 406 -393 30 -36 57 -67 60 -70 49 -43 319 -447 319 -478 0 -6 3 -12 8 -14 4 -1 35 -59 69 -128 54 -109 71 -148 113 -245 4 -11 18 -49 31 -85 12 -36 26 -69 29 -75 4 -5 11 -26 14 -45 4 -19 11 -44 16 -55 21 -49 81 -304 105 -445 35 -206 61 -515 52 -615 -4 -39 -11 -137 -17 -220 -5 -82 -14 -166 -20 -185 -5 -19 -10 -50 -10 -69 0 -34 -21 -139 -45 -226 -8 -27 -18 -68 -24 -90 -5 -22 -17 -65 -26 -95 -8 -30 -20 -72 -26 -93 -5 -21 -13 -45 -19 -55 -5 -9 -18 -45 -30 -80 -11 -34 -24 -70 -29 -80 -5 -9 -17 -37 -27 -62 -17 -44 -164 -346 -187 -385 -7 -11 -21 -33 -32 -50 -105 -163 -130 -201 -139 -207 -6 -4 -220 -8 -476 -8 -493 -1 -500 -1 -500 -47 0 -49 18 -52 460 -55 289 -2 415 -7 417 -14 2 -7 -22 -41 -53 -78 l-56 -66 -1009 0 c-1006 0 -1009 0 -1030 -21 -11 -11 -19 -30 -17 -42 3 -22 7 -22 218 -28 118 -4 553 -10 965 -14 540 -6 749 -11 747 -19 -2 -6 -28 -36 -58 -66 l-54 -55 -318 -7 c-174 -3 -558 -4 -852 -1 -494 6 -538 5 -568 -11 -19 -10 -35 -16 -37 -14 -23 26 -63 155 -64 208 0 8 -3 67 -7 130 -8 133 1 249 21 256 7 3 48 -12 91 -34 130 -63 278 -102 393 -102 92 0 288 46 353 82 74 42 172 126 216 186 61 83 80 120 101 197 l17 60 79 0 c157 0 242 26 351 109 60 45 126 122 156 181 37 72 46 107 53 191 8 89 14 104 47 104 24 0 145 58 177 84 98 79 169 180 206 291 29 88 28 287 -2 367 -30 76 -81 153 -142 213 -56 55 -61 73 -31 100 30 27 78 105 107 176 23 56 27 79 27 175 1 67 -4 121 -11 135 -6 13 -19 40 -27 59 -9 20 -37 60 -64 90 l-47 54 0 125 c0 77 -5 134 -12 146 -6 11 -21 40 -33 64 -11 24 -27 50 -35 57 -7 8 -22 24 -32 37 -24 30 -114 103 -137 111 -12 4 -16 12 -11 24 18 45 45 155 45 184 0 42 -32 164 -53 204 -22 43 -107 134 -157 169 -22 15 -68 38 -103 49 l-62 22 -10 69 c-6 39 -16 83 -23 98 -7 16 -12 31 -12 34 0 9 -77 110 -102 133 -61 57 -203 120 -270 120 -45 0 -51 6 -84 74 -38 78 -100 145 -174 190 -86 50 -203 67 -310 42 l-74 -16 -58 64 c-106 117 -205 160 -354 153 -184 -8 -298 -65 -398 -199 -27 -36 -56 -50 -56 -27 0 6 -27 39 -60 73 -149 156 -386 199 -580 108 -19 -10 -70 -51 -112 -94 l-77 -76 -43 10 c-24 5 -90 8 -148 5 -96 -4 -111 -7 -169 -38 -76 -41 -156 -124 -197 -205 -29 -58 -30 -59 -79 -65 -124 -17 -205 -52 -282 -123 -77 -72 -117 -150 -130 -254 -9 -70 -3 -64 -124 -121 -128 -60 -202 -139 -242 -259 -25 -73 -25 -245 0 -297 l18 -38 -40 -31 c-58 -46 -175 -165 -175 -179 0 -7 -8 -25 -17 -42 -13 -24 -17 -58 -18 -163 -1 -116 -3 -135 -18 -143 -18 -11 -97 -113 -97 -126 0 -4 -8 -21 -17 -38 -13 -23 -17 -57 -17 -155 -1 -136 9 -175 63 -255 15 -22 40 -58 54 -79 15 -21 27 -44 27 -50 0 -6 -24 -36 -52 -66 -32 -34 -68 -87 -91 -135 -21 -44 -43 -88 -48 -98 -5 -9 -14 -62 -21 -117 -16 -133 1 -227 59 -335 29 -53 102 -142 150 -184 53 -45 161 -101 195 -101 39 0 45 -12 52 -108 8 -114 40 -189 116 -274 56 -63 164 -144 225 -170 53 -23 177 -38 247 -31 l56 6 12 -59 c26 -127 127 -264 255 -348 141 -92 251 -126 411 -126 132 0 310 41 397 92 26 15 59 31 72 34 l25 6 0 -150 c0 -83 -4 -153 -9 -157 -5 -3 -470 -5 -1032 -5 -957 0 -1024 1 -1042 18 -34 29 -97 113 -97 128 0 12 61 14 388 15 415 1 454 5 460 48 8 54 17 54 -481 50 l-459 -4 -21 30 c-12 16 -26 37 -32 46 -5 10 -37 61 -70 114 -104 167 -172 297 -240 460 -12 28 -21 48 -59 138 -9 21 -16 44 -16 51 0 8 -7 27 -15 42 -8 16 -15 37 -15 46 0 10 -6 32 -14 50 -24 58 -46 132 -46 156 0 13 -5 32 -10 42 -6 10 -14 45 -19 77 -5 32 -14 76 -19 98 -39 154 -56 345 -57 625 0 277 13 421 60 650 7 36 16 83 20 105 3 22 10 54 15 70 49 170 105 347 120 380 9 20 44 103 59 140 33 80 55 126 98 205 17 30 48 87 68 125 21 39 41 72 44 75 3 3 24 32 46 65 22 33 42 62 45 65 4 3 17 23 30 45 13 22 27 42 30 45 3 3 44 55 90 115 99 129 134 169 255 288 249 244 528 443 825 589 85 42 178 86 205 97 28 12 58 26 67 31 10 6 23 10 29 10 6 0 25 6 42 14 18 8 66 24 107 37 41 13 80 26 85 30 6 3 55 16 110 28 55 12 110 26 121 31 12 5 43 11 70 15 27 4 63 11 79 15 17 5 80 14 140 21 61 6 135 14 165 19 79 10 572 11 655 0z m211 -457 c69 -23 115 -54 162 -110 38 -44 41 -52 39 -100 -3 -68 13 -85 50 -55 92 73 101 76 213 76 91 0 111 -3 149 -24 48 -26 131 -100 131 -117 0 -6 6 -16 13 -22 15 -12 36 -94 40 -156 3 -50 25 -57 68 -21 44 37 101 33 198 -13 52 -25 129 -99 162 -155 24 -43 29 -62 29 -121 -1 -42 -6 -80 -15 -95 -17 -30 -19 -76 -4 -85 5 -4 28 5 50 20 37 27 41 27 86 15 48 -13 128 -60 171 -100 36 -34 67 -90 85 -156 22 -77 21 -125 -1 -197 -14 -45 -27 -64 -55 -84 -20 -14 -37 -34 -37 -44 0 -21 32 -41 53 -33 36 13 154 -63 203 -131 58 -81 66 -104 67 -201 1 -84 -1 -94 -29 -135 -44 -67 -57 -96 -51 -113 8 -20 60 -21 77 -1 21 26 54 17 85 -21 60 -75 69 -102 68 -204 0 -95 -6 -117 -58 -209 -16 -29 -114 -121 -129 -121 -22 -1 -56 -39 -56 -63 0 -18 10 -29 38 -43 56 -29 145 -98 174 -136 13 -18 40 -64 58 -103 32 -67 33 -75 34 -190 0 -119 0 -120 -38 -195 -71 -143 -213 -260 -314 -260 -31 0 -40 5 -54 30 -19 33 -65 51 -79 29 -9 -16 -3 -51 17 -91 20 -39 19 -209 -2 -256 -26 -60 -46 -95 -78 -135 -31 -40 -128 -117 -146 -117 -6 0 -23 -8 -37 -17 -21 -14 -49 -18 -136 -18 l-109 0 -42 48 c-70 80 -107 51 -80 -64 16 -67 9 -107 -37 -204 -47 -102 -186 -229 -287 -263 -153 -52 -248 -62 -359 -38 -76 17 -143 43 -143 55 0 15 100 80 136 89 22 6 79 13 127 16 58 4 102 13 127 26 55 28 115 102 164 205 70 145 70 147 49 163 -25 19 -258 8 -327 -16 -98 -34 -186 -156 -186 -259 0 -24 -15 -44 -80 -108 -62 -60 -84 -75 -93 -66 -8 8 -11 95 -11 315 l1 304 32 38 c17 21 31 45 31 52 0 23 37 63 77 83 32 16 59 19 182 19 l145 0 207 210 206 210 116 0 c111 0 117 1 148 27 17 15 40 40 49 55 18 30 140 166 267 299 86 89 90 103 100 334 l6 150 46 30 c51 34 90 100 91 153 0 42 -33 107 -67 129 -14 10 -53 27 -87 38 -43 14 -64 27 -73 45 l-13 25 0 -33 c0 -24 -11 -47 -38 -80 -45 -55 -67 -119 -53 -154 5 -13 12 -35 16 -51 3 -15 23 -44 45 -65 l40 -37 0 -177 0 -177 -47 -48 c-38 -38 -154 -163 -258 -277 -6 -6 -25 -30 -43 -53 -31 -40 -37 -43 -82 -43 -51 0 -73 15 -49 34 8 6 25 25 37 43 20 28 22 44 22 147 l0 116 32 27 c131 114 147 149 148 315 0 90 4 130 13 137 48 40 67 62 84 102 18 40 19 51 8 82 -17 50 -53 92 -101 116 -49 25 -65 26 -107 5 -80 -40 -118 -143 -81 -217 19 -36 68 -84 96 -93 15 -4 18 -16 18 -72 0 -86 -8 -112 -31 -112 -11 0 -19 4 -19 9 0 22 -68 51 -118 51 -113 0 -193 -105 -162 -215 l13 -46 -69 -72 c-37 -39 -92 -96 -121 -125 -59 -59 -72 -102 -29 -102 25 0 75 39 197 157 82 78 105 87 140 52 20 -20 21 -29 16 -147 -3 -70 -7 -138 -9 -152 -3 -25 -2 -24 -108 -46 -13 -3 -46 -29 -73 -57 -27 -29 -117 -122 -201 -206 l-151 -155 -135 -7 c-74 -4 -147 -11 -162 -14 -28 -7 -102 -71 -110 -95 -3 -9 -11 -11 -22 -7 -16 6 -18 15 -12 60 3 28 6 73 6 98 0 45 3 49 96 143 130 131 139 134 183 76 61 -84 197 -77 261 12 27 37 30 49 30 114 0 90 -9 116 -52 141 -111 66 -229 27 -268 -87 -17 -50 -22 -56 -54 -62 -23 -5 -48 -21 -67 -43 -17 -19 -61 -65 -98 -103 -36 -37 -79 -83 -94 -103 l-27 -36 -2 -499 c-3 -471 -4 -499 -21 -502 -10 -2 -29 4 -42 12 l-25 16 0 604 0 604 77 84 c43 46 159 162 258 258 99 96 295 289 436 428 141 139 273 265 293 279 61 44 73 74 80 203 9 161 10 164 64 192 26 13 61 43 79 67 29 37 33 50 33 103 0 91 -47 159 -119 173 -54 10 -104 -3 -141 -38 -93 -87 -95 -187 -6 -284 l29 -32 -5 -113 c-4 -117 -15 -151 -52 -177 -11 -8 -96 -89 -189 -180 -93 -92 -174 -166 -181 -166 -7 0 -10 22 -8 70 4 84 9 105 26 105 26 0 96 61 116 99 26 53 27 137 1 168 -11 13 -44 33 -75 44 -55 21 -57 21 -103 4 -57 -21 -78 -38 -109 -87 -45 -70 -29 -155 39 -208 l27 -21 0 -135 0 -134 -251 -252 c-139 -139 -284 -290 -324 -335 l-72 -82 -7 -333 c-9 -411 1 -1285 16 -1393 24 -178 95 -329 213 -454 85 -88 202 -192 246 -216 145 -80 273 -125 355 -125 30 0 54 -3 54 -8 0 -11 -32 -29 -70 -37 -19 -4 -41 -11 -50 -15 -40 -20 -92 -40 -102 -40 -10 0 -52 18 -167 73 -35 17 -210 135 -262 177 -23 19 -79 72 -124 118 -64 66 -92 103 -128 175 -85 171 -80 90 -75 1282 l5 1055 29 33 c17 17 55 58 85 91 30 32 83 88 118 123 l65 64 50 -6 c67 -8 117 13 156 67 25 34 30 50 30 100 0 57 -13 90 -49 128 -20 21 -89 50 -118 50 -35 0 -92 -28 -130 -63 -41 -38 -53 -109 -29 -177 17 -50 18 -48 -54 -121 -25 -25 -62 -65 -83 -88 -21 -22 -42 -41 -47 -41 -6 0 -10 125 -10 328 l0 327 168 170 c92 94 172 183 179 198 8 16 23 29 40 32 104 22 154 97 137 205 -5 31 -18 55 -49 86 -41 43 -43 44 -108 44 -65 0 -66 0 -116 -49 -61 -59 -72 -99 -46 -169 10 -26 26 -56 36 -68 32 -34 24 -63 -33 -119 -29 -28 -84 -84 -122 -123 -37 -40 -72 -70 -76 -67 -11 7 -4 631 9 700 5 33 13 76 16 95 4 28 12 38 44 54 21 10 61 41 89 70 65 67 81 125 58 212 -15 56 -14 61 4 97 18 34 20 58 20 239 l0 201 45 40 c25 22 45 48 45 57 0 9 5 21 11 27 18 18 15 84 -4 125 -21 45 -74 92 -121 108 -82 27 -214 -52 -217 -129 -5 -120 40 -192 143 -225 15 -4 17 -29 20 -233 2 -125 2 -230 1 -231 -1 -2 -26 5 -57 17 -51 19 -57 19 -100 5 -25 -9 -65 -33 -88 -54 l-43 -38 1 -78 c0 -62 5 -88 23 -122 13 -23 27 -45 32 -48 13 -8 11 -161 -3 -209 -7 -27 -14 -313 -19 -890 -27 -2882 -27 -2855 -1 -2970 5 -22 23 -69 41 -105 65 -132 98 -177 213 -291 57 -56 119 -112 138 -124 19 -13 46 -33 60 -45 29 -26 85 -62 140 -91 63 -33 50 -51 -50 -68 -36 -5 -74 -13 -85 -16 -16 -5 -49 19 -145 100 -169 145 -212 187 -278 275 -82 108 -84 112 -124 215 -50 127 -48 11 -48 2730 0 2636 0 2589 38 2627 7 7 12 16 12 21 0 16 85 99 133 130 98 64 225 83 323 50z m-916 -17 c119 -21 210 -82 251 -169 9 -18 24 -49 34 -69 17 -36 18 -145 17 -2636 -1 -2303 -3 -2602 -17 -2628 -8 -16 -15 -34 -15 -41 0 -13 -60 -132 -75 -149 -5 -6 -17 -22 -25 -35 -35 -53 -180 -201 -270 -275 -19 -16 -58 -54 -86 -84 -43 -44 -55 -52 -66 -42 -8 7 -37 15 -64 18 -53 6 -104 22 -104 33 0 3 26 21 58 40 31 19 84 55 117 80 78 58 265 220 265 229 0 4 16 25 35 47 34 38 105 149 105 163 0 4 7 21 16 37 29 55 38 129 37 320 -3 663 -23 2338 -34 2860 -8 341 -14 697 -14 790 l0 170 27 36 c40 51 48 138 20 202 -37 83 -130 148 -214 149 l-38 0 0 199 0 199 28 11 c45 17 119 103 126 149 12 77 -2 118 -61 176 -53 54 -53 54 -117 54 -44 0 -67 -5 -76 -15 -7 -8 -18 -15 -25 -15 -38 0 -105 -105 -105 -165 0 -52 33 -118 80 -158 l40 -34 0 -125 c0 -68 -3 -127 -6 -131 -3 -3 -14 -1 -24 5 -14 9 -24 8 -44 -5 -18 -13 -47 -17 -108 -17 l-83 0 -40 -43 c-44 -47 -118 -107 -131 -107 -5 0 -9 77 -10 170 0 147 2 170 15 175 59 18 139 186 101 210 -5 3 -10 14 -10 24 0 29 -56 98 -92 115 -59 26 -75 27 -129 6 -89 -36 -134 -100 -127 -185 5 -61 45 -127 98 -163 l35 -24 0 -156 c1 -86 7 -328 14 -537 9 -237 10 -408 5 -453 l-9 -74 -105 109 c-58 59 -140 142 -182 184 l-78 76 0 262 0 261 23 9 c28 11 82 66 101 103 26 49 28 95 7 140 -39 87 -113 126 -208 112 -34 -5 -54 -17 -93 -55 -53 -52 -67 -92 -55 -156 8 -46 57 -118 91 -135 l25 -13 1 -210 c0 -115 -1 -214 -1 -219 -1 -5 -28 17 -61 50 -51 50 -60 63 -56 86 14 75 -59 175 -150 204 -50 15 -56 15 -96 0 -118 -48 -165 -139 -122 -241 26 -64 71 -101 146 -121 49 -12 58 -12 112 7 l58 21 87 -84 c47 -46 108 -102 136 -124 63 -50 215 -201 280 -279 109 -130 474 -501 526 -532 49 -31 109 -15 109 28 0 12 -75 93 -190 206 l-190 186 0 220 0 220 47 44 c34 31 56 43 78 43 16 0 54 13 84 28 45 22 60 37 88 87 33 58 34 63 30 147 -6 148 -46 164 -184 76 -81 -53 -113 -110 -113 -202 0 -44 -9 -66 -26 -66 -11 0 -14 27 -14 139 l0 140 47 38 c27 21 54 44 61 51 7 6 17 12 21 12 5 0 26 18 47 40 34 34 45 40 82 40 52 0 108 22 144 57 15 15 29 25 31 22 3 -6 27 -67 39 -106 9 -26 7 -36 -11 -62 -28 -39 -31 -161 -5 -216 22 -47 87 -110 135 -132 l39 -17 0 -112 c0 -62 4 -146 9 -186 15 -113 23 -468 11 -468 -10 0 -220 204 -220 214 0 4 11 19 25 34 38 41 69 162 45 177 -5 3 -10 14 -10 24 0 10 -19 37 -41 60 -41 40 -43 41 -112 41 -81 0 -114 -17 -161 -82 -34 -47 -38 -117 -11 -173 21 -46 88 -95 129 -95 28 0 34 -5 45 -37 9 -26 54 -79 145 -168 198 -196 176 -137 176 -481 0 -231 -3 -294 -13 -294 -12 0 -71 54 -129 118 -25 27 -27 36 -26 103 1 62 -3 82 -26 127 -20 40 -32 52 -49 52 -13 0 -32 7 -43 15 -10 8 -41 15 -68 15 -39 0 -55 -6 -86 -30 -87 -69 -104 -155 -50 -242 44 -71 69 -83 164 -82 l81 2 30 -37 c16 -20 75 -83 131 -140 l101 -103 6 -302 c4 -165 5 -537 3 -826 -2 -289 0 -631 4 -760 7 -244 -1 -372 -26 -427 -8 -17 -14 -36 -14 -42 0 -46 -210 -269 -340 -361 -19 -14 -45 -34 -58 -46 -23 -20 -176 -100 -239 -124 -32 -12 -61 -7 -133 23 -14 6 -45 13 -70 17 l-45 6 39 17 c21 9 56 17 77 17 34 0 85 16 129 41 8 4 40 20 70 35 84 41 194 127 311 244 89 88 144 179 200 325 l23 60 3 902 c4 732 2 906 -9 926 -7 14 -41 56 -74 93 -34 38 -74 85 -90 104 -15 19 -120 128 -233 242 -113 114 -208 214 -213 221 -4 8 -10 69 -14 135 l-7 122 47 44 c44 43 46 47 46 102 0 41 -6 66 -22 93 -27 43 -66 81 -83 81 -7 0 -18 7 -25 15 -16 19 -67 19 -102 1 -15 -8 -41 -17 -57 -21 -39 -8 -81 -62 -81 -102 0 -17 6 -46 14 -64 17 -40 80 -106 110 -115 46 -14 56 -33 56 -111 0 -40 -3 -73 -6 -73 -3 0 -44 39 -92 88 -84 84 -227 219 -271 254 -20 17 -21 27 -21 157 0 120 3 142 19 162 41 53 54 91 48 145 -10 100 -96 184 -187 184 -58 0 -125 -42 -163 -102 -64 -102 5 -236 144 -281 12 -4 18 -25 23 -94 3 -48 10 -116 14 -151 l8 -64 110 -106 c60 -59 182 -176 269 -259 212 -202 561 -548 655 -648 l75 -80 0 -615 0 -615 -21 -3 c-21 -3 -22 1 -28 155 -3 87 -5 302 -3 478 4 360 5 352 -70 442 -102 122 -194 212 -223 218 -23 5 -30 12 -30 30 0 41 -60 107 -115 127 -73 27 -122 10 -186 -61 -48 -54 -49 -56 -49 -121 0 -54 5 -72 25 -103 50 -73 140 -111 196 -83 18 9 38 16 45 16 7 0 28 19 47 41 40 49 48 47 117 -28 116 -123 140 -169 140 -263 0 -38 -3 -70 -6 -70 -3 0 -15 11 -25 24 -11 14 -42 41 -71 62 l-51 38 -134 3 -135 3 -66 72 c-37 40 -101 109 -143 153 -42 44 -101 106 -130 138 -50 53 -58 58 -114 66 -33 5 -50 9 -37 10 27 1 29 21 3 28 -28 7 -33 25 -38 155 l-6 117 26 12 c23 10 31 9 61 -15 19 -14 71 -62 115 -107 89 -89 128 -106 176 -75 14 9 25 20 25 25 0 5 -29 37 -65 72 -206 200 -196 188 -188 228 12 57 9 104 -11 146 -24 49 -48 70 -108 89 -77 26 -101 20 -165 -38 l-33 -30 0 86 0 86 35 27 c70 53 98 168 59 236 -12 21 -39 43 -68 58 -42 21 -53 22 -86 12 -47 -14 -95 -62 -122 -121 l-21 -45 -10 35 c-5 19 -12 37 -15 40 -4 3 -22 22 -41 42 -29 32 -32 39 -21 53 8 9 15 51 18 96 l5 80 41 30 c60 42 80 81 80 154 0 72 -18 108 -75 148 -74 53 -152 49 -222 -13 -49 -44 -80 -110 -66 -145 4 -11 8 -32 8 -46 1 -25 63 -100 103 -124 13 -8 17 -29 20 -95 3 -78 1 -85 -17 -88 -46 -8 -105 -44 -136 -83 -30 -38 -33 -48 -33 -109 0 -60 3 -71 31 -107 17 -21 48 -48 68 -59 l37 -19 -7 -187 -8 -188 49 -48 c123 -122 253 -263 298 -322 97 -128 82 -120 223 -120 l124 0 82 -83 c45 -46 136 -141 203 -210 l121 -127 144 0 144 0 47 -41 c31 -26 60 -65 83 -109 l34 -69 -4 -263 c-2 -145 -4 -266 -4 -270 -2 -19 -30 -4 -83 43 -56 49 -58 53 -58 100 0 92 -68 182 -177 235 -53 26 -70 29 -191 32 -155 5 -178 1 -186 -31 -14 -58 75 -233 158 -310 61 -56 105 -71 271 -90 55 -7 107 -16 115 -22 8 -5 29 -17 45 -26 41 -22 44 -47 8 -54 -15 -3 -54 -12 -85 -20 -32 -8 -81 -15 -110 -15 -61 0 -213 30 -245 48 -12 7 -27 12 -33 12 -21 0 -117 69 -171 124 -97 96 -146 232 -129 356 9 67 5 78 -28 87 -20 5 -31 0 -52 -24 -51 -57 -67 -63 -165 -63 -63 1 -96 5 -109 15 -11 8 -28 15 -39 15 -38 0 -175 123 -200 180 -4 8 -11 22 -16 30 -38 61 -54 231 -26 280 19 33 20 106 1 113 -24 9 -53 -3 -75 -34 -33 -44 -61 -40 -180 26 -39 22 -121 106 -149 154 -47 79 -55 112 -59 222 -5 126 10 182 77 286 58 89 125 143 180 143 31 0 43 5 56 25 15 23 15 27 -6 59 -12 20 -40 45 -67 58 -60 30 -113 84 -141 144 -13 27 -27 57 -33 66 -16 31 -11 183 8 225 38 84 109 129 142 89 17 -20 58 -28 81 -16 25 13 27 62 4 81 -9 7 -34 39 -55 71 -37 53 -39 62 -39 130 0 90 22 153 75 213 57 64 111 88 179 80 30 -4 63 -4 74 -1 51 17 25 98 -39 124 -28 11 -41 22 -45 41 -3 14 -12 51 -21 83 -8 31 -13 69 -10 85 12 65 28 116 44 141 24 38 106 121 119 122 6 0 17 7 24 15 7 8 19 15 27 15 8 0 31 8 50 17 35 16 36 16 55 -10 14 -20 28 -27 53 -27 48 0 60 20 45 75 -7 25 -17 48 -21 51 -15 9 -10 96 8 144 42 113 128 188 240 209 71 13 137 2 147 -25 4 -10 16 -14 38 -12 l33 3 -3 68 c-3 84 21 141 88 207 75 73 106 85 231 85 l107 0 60 -48 c33 -26 69 -47 79 -47 42 0 55 42 28 94 -14 26 -13 31 4 60 42 67 101 104 196 122 80 15 70 15 155 0z m-9 -295 c21 -22 29 -39 29 -66 0 -42 -44 -95 -79 -95 -56 0 -101 46 -101 105 0 38 50 85 90 85 22 0 41 -9 61 -29z m891 -25 c25 -30 22 -69 -8 -101 -21 -23 -31 -27 -61 -22 -88 15 -110 107 -35 146 41 21 73 14 104 -23z m-1507 -56 c44 -27 59 -63 44 -109 -14 -45 -34 -61 -76 -61 -52 0 -85 41 -81 99 3 39 8 49 37 68 41 28 36 28 76 3z m-416 -356 c40 -33 42 -78 6 -116 -33 -36 -66 -43 -104 -24 -36 19 -51 44 -51 84 0 38 49 82 90 82 16 0 42 -11 59 -26z m1765 -344 c27 -10 56 -56 56 -90 0 -25 -83 -110 -107 -110 -28 1 -50 23 -69 69 -16 40 -16 44 1 81 23 51 68 70 119 50z m-639 -41 c4 -12 2 -26 -3 -31 -7 -7 -12 -2 -17 13 -4 13 -13 27 -19 31 -6 5 -2 8 11 8 13 0 24 -8 28 -21z m-96 -51 c1 -10 -3 -18 -9 -18 -5 0 -10 17 -9 38 0 30 2 33 9 17 5 -11 9 -28 9 -37z m-1394 -25 c31 -35 32 -60 1 -98 -21 -26 -30 -30 -72 -29 -36 1 -52 6 -66 24 -32 39 -17 115 24 123 61 12 87 7 113 -20z m1055 -8 c8 -10 10 -30 6 -59 -7 -44 -29 -72 -74 -96 -78 -40 -65 87 15 150 31 24 37 25 53 5z m115 -497 c14 -6 35 -27 46 -45 18 -29 20 -38 9 -64 -15 -34 -59 -69 -88 -69 -11 0 -34 12 -51 26 -26 21 -31 33 -31 68 0 51 22 75 87 95 1 1 14 -4 28 -11z m1278 -26 c56 -62 26 -142 -53 -142 -32 0 -80 48 -80 80 0 63 93 106 133 62z m-2231 -34 c44 -25 58 -51 55 -98 -2 -38 -7 -48 -36 -67 -46 -31 -57 -29 -102 16 -59 59 -50 107 26 149 26 15 31 15 57 0z m-437 -40 c34 -41 29 -90 -12 -125 -42 -33 -75 -30 -113 13 -26 30 -31 42 -26 67 16 80 101 105 151 45z m3625 12 c31 -31 27 -94 -6 -125 -50 -46 -111 -20 -121 52 -4 34 -1 44 21 66 32 33 78 35 106 7z m-2643 -492 c27 -26 30 -73 6 -100 -25 -27 -82 -24 -112 8 -34 36 -35 93 -1 111 32 17 77 9 107 -19z m2150 -2 l28 -24 -18 -36 c-14 -31 -67 -76 -89 -76 -3 0 -20 12 -37 26 -35 29 -39 59 -13 89 44 50 87 57 129 21z m-3201 -59 c21 -18 27 -32 27 -65 0 -26 -7 -50 -18 -62 -42 -47 -127 -28 -143 33 -24 87 67 151 134 94z m338 1 c23 -33 19 -64 -10 -87 -35 -27 -48 -26 -64 3 -13 25 -7 70 12 93 16 20 45 15 62 -9z m3537 9 c31 -23 40 -53 27 -84 -15 -35 -26 -43 -57 -43 -34 0 -71 37 -71 71 0 52 62 86 101 56z m347 -8 c18 -6 35 -22 42 -39 10 -25 9 -33 -10 -60 -42 -59 -92 -63 -124 -9 -15 26 -16 35 -6 60 12 27 44 59 61 59 3 0 20 -5 37 -11z m-4062 -134 c14 -25 35 -50 45 -56 16 -8 19 -22 20 -97 0 -48 5 -109 10 -137 6 -27 13 -66 16 -85 3 -19 13 -46 21 -60 22 -35 82 -90 111 -101 21 -9 23 -14 17 -52 -3 -23 -9 -76 -12 -117 -6 -70 -4 -78 20 -113 15 -21 24 -43 21 -48 -12 -18 -54 -9 -66 14 -18 34 -153 191 -249 290 -47 49 -88 94 -92 100 -3 7 -8 86 -10 177 l-5 165 52 50 c32 31 55 63 60 83 3 18 8 32 10 32 2 0 16 -20 31 -45z m2560 -155 c52 -33 55 -99 5 -137 -22 -17 -44 -16 -80 4 -45 27 -57 97 -21 133 25 25 54 25 96 0z m-1234 -17 c34 -32 35 -59 6 -90 -44 -47 -138 -14 -138 49 0 64 81 90 132 41z m-950 -120 c40 -38 39 -91 -2 -132 -42 -42 -64 -46 -105 -21 -59 37 -66 109 -14 153 43 35 84 35 121 0z m3172 -17 c34 -30 34 -74 1 -110 -37 -40 -92 -29 -120 25 -41 78 54 146 119 85z m-2585 -557 c42 -41 42 -86 2 -127 -38 -37 -61 -43 -100 -25 -61 30 -66 128 -8 164 45 27 71 24 106 -12z m2019 -20 c20 -38 8 -98 -25 -125 -36 -30 -55 -30 -92 2 -56 47 -50 133 11 159 40 16 86 1 106 -36z m-2048 -982 c40 -17 60 -38 84 -84 22 -44 4 -51 -42 -15 -20 16 -51 37 -69 46 -39 20 -113 22 -113 3 0 -17 54 -68 105 -98 22 -13 49 -32 60 -43 20 -19 20 -19 -5 -12 -14 3 -47 11 -73 17 -34 8 -59 22 -87 50 -44 45 -93 139 -80 154 12 15 175 1 220 -18z m2160 13 c0 -25 -46 -97 -90 -141 -45 -45 -59 -52 -155 -75 l-30 -7 27 24 c15 13 42 35 60 49 65 50 90 80 77 96 -23 28 -74 16 -136 -30 -58 -45 -76 -45 -53 0 21 39 88 78 144 85 85 10 156 10 156 -1z m-1850 -839 l205 -6 3 -33 c4 -37 -35 -142 -52 -142 -6 0 -29 5 -51 10 -22 5 -285 11 -585 12 -300 1 -676 5 -835 8 l-291 5 -62 55 c-107 94 -124 89 346 92 854 6 1123 6 1322 -1z m125 -253 c-8 -40 -99 -147 -156 -184 -45 -28 -68 -32 -49 -9 7 9 10 18 7 21 -10 10 -571 24 -887 22 l-315 -2 -55 36 c-71 46 -127 94 -119 103 4 3 344 8 755 9 412 2 764 7 782 11 19 5 32 14 32 23 0 8 3 13 6 10 3 -3 2 -21 -1 -40z m1878 -6 c416 -1 757 -6 757 -10 0 -4 -8 -14 -17 -22 -62 -52 -111 -88 -128 -94 -11 -4 -191 -7 -400 -6 -373 1 -791 -15 -809 -31 -18 -16 111 -100 176 -114 18 -4 42 -13 53 -20 11 -7 74 -15 148 -19 100 -5 138 -11 173 -27 38 -18 48 -20 74 -9 28 11 47 11 128 -6 41 -8 40 -15 -1 -37 -31 -17 -51 -18 -200 -11 -94 4 -167 11 -167 16 0 6 24 9 53 7 78 -3 137 0 137 9 0 4 -19 15 -41 25 -32 15 -43 16 -54 7 -11 -9 -25 -10 -56 -2 -46 12 -73 6 -65 -13 8 -21 -60 -29 -96 -11 -17 9 -39 16 -48 16 -10 0 -23 7 -30 15 -7 8 -20 15 -30 15 -10 0 -23 7 -30 15 -7 8 -17 15 -22 15 -12 0 -84 54 -118 90 -14 14 -45 41 -70 59 -59 44 -124 127 -116 147 4 11 11 14 24 8 9 -5 358 -10 775 -12z m-2109 -234 c-26 -30 -45 -47 -69 -58 -11 -6 -33 -19 -50 -29 -32 -21 -89 -49 -145 -72 -53 -21 -463 -20 -468 1 -1 10 15 23 45 37 119 55 117 54 308 51 156 -2 184 -1 210 15 17 9 34 17 40 17 18 0 115 44 115 52 0 4 7 8 17 8 14 0 14 -3 -3 -22z m826 -39 c0 -16 150 -209 200 -259 26 -25 79 -73 118 -108 40 -35 72 -70 72 -77 0 -14 -22 -20 -117 -29 -56 -5 -61 -2 -78 49 -15 46 -41 44 -56 -5 -14 -46 -29 -53 -105 -48 l-49 3 -3 248 c-1 167 1 246 8 242 5 -3 10 -11 10 -16z m-123 -251 l-2 -223 -159 2 c-172 2 -226 8 -226 25 0 10 45 55 246 249 44 41 90 96 104 122 14 26 28 47 32 47 5 0 7 -100 5 -222z"/> <path d="M1707 3343 c-4 -3 -7 -18 -7 -33 0 -48 42 -66 73 -32 21 23 22 58 1 66 -21 8 -59 8 -67 -1z"/> <path d="M7180 3331 c-8 -15 -7 -26 2 -41 19 -30 35 -32 65 -5 23 19 26 27 17 42 -16 27 -70 29 -84 4z"/> <path d="M5462 7040 c-18 -4 -45 -18 -59 -31 -31 -29 -63 -94 -63 -129 0 -64 54 -151 107 -171 23 -8 23 -9 23 -184 l0 -175 -23 0 c-14 0 -57 29 -111 76 -75 64 -93 75 -119 72 -19 -2 -33 -9 -35 -18 -4 -22 141 -169 216 -219 l62 -42 0 -137 c0 -75 -4 -143 -9 -151 -13 -21 -29 -5 -37 37 -17 92 -87 210 -137 233 -12 5 -40 20 -62 34 -49 30 -50 30 -75 5 -29 -29 -28 -138 2 -215 32 -85 71 -120 149 -133 57 -10 69 -17 112 -61 l47 -50 0 -218 0 -219 -47 -45 c-134 -128 -323 -329 -323 -342 0 -29 26 -39 62 -24 28 12 528 513 664 666 21 24 115 116 207 203 122 115 175 158 193 158 13 0 24 -4 24 -10 0 -16 82 -32 133 -27 86 11 137 75 137 173 0 65 -23 110 -72 146 -24 17 -44 21 -94 20 -107 -1 -164 -52 -169 -149 -2 -52 -4 -57 -66 -119 -102 -102 -101 -104 -93 154 l7 217 43 38 c90 79 85 210 -9 278 -32 24 -50 29 -95 29 -46 0 -60 -5 -93 -31 -41 -32 -69 -84 -69 -127 0 -70 46 -143 110 -175 l25 -13 3 -260 2 -261 -88 -89 c-48 -49 -134 -138 -191 -197 -70 -73 -108 -106 -119 -102 -13 5 -14 31 -8 193 3 103 9 382 12 620 l7 432 37 21 c46 26 74 62 90 117 27 89 -40 195 -130 206 -25 2 -60 1 -78 -4z m115 -124 c15 -32 14 -36 -3 -72 -17 -35 -23 -39 -61 -42 -39 -3 -44 0 -63 30 -25 41 -25 45 0 86 18 28 25 32 65 32 42 0 47 -3 62 -34z m420 -311 c12 -9 25 -31 29 -50 12 -64 -44 -113 -98 -84 -53 28 -63 78 -23 122 29 30 60 34 92 12z m387 -456 c20 -15 26 -29 26 -57 0 -45 -8 -58 -42 -71 -39 -15 -83 4 -108 45 -21 32 -21 35 -4 63 27 45 84 54 128 20z m-1119 -62 c43 -60 55 -86 48 -102 -9 -25 -40 -17 -72 20 -25 29 -31 45 -31 80 0 57 16 58 55 2z"/> <path d="M5705 6238 c-14 -29 -35 -69 -47 -88 -11 -19 -30 -66 -41 -104 -19 -63 -20 -73 -7 -135 7 -36 14 -93 14 -126 1 -45 5 -60 16 -63 21 -4 151 131 181 188 19 38 23 59 23 131 -1 59 -6 95 -17 115 -9 16 -26 53 -39 82 -15 33 -29 52 -40 52 -10 0 -27 -20 -43 -52z m55 -178 c10 -41 10 -53 -1 -67 -8 -9 -18 -30 -24 -47 -6 -17 -18 -32 -29 -34 -17 -4 -18 1 -11 65 4 37 10 73 15 78 4 6 10 23 14 38 9 38 22 27 36 -33z"/> <path d="M6482 5642 c-18 -9 -48 -32 -66 -50 -78 -75 -42 -218 67 -271 57 -27 89 -27 137 4 84 53 113 150 70 233 -25 48 -45 67 -93 87 -47 20 -75 19 -115 -3z m112 -107 c17 -16 26 -34 26 -55 0 -34 -40 -80 -69 -80 -17 0 -61 26 -73 44 -18 26 -8 74 20 95 36 27 64 26 96 -4z"/> <path d="M6670 4226 c-64 -44 -80 -76 -80 -163 l0 -77 -108 -110 c-59 -61 -126 -132 -149 -158 l-42 -48 -71 0 c-91 0 -141 -23 -214 -100 -61 -64 -76 -93 -76 -148 0 -31 -5 -40 -33 -57 -29 -18 -57 -20 -332 -25 -314 -5 -345 -10 -345 -50 0 -10 7 -23 16 -28 9 -5 148 -7 323 -5 l306 5 40 26 c59 40 67 41 107 21 54 -27 170 -26 234 2 91 41 227 204 208 252 -2 7 -25 24 -49 37 -25 14 -44 28 -42 33 6 20 283 287 297 287 8 -1 26 -7 40 -15 66 -38 161 -5 220 77 54 75 32 177 -52 238 -35 26 -50 30 -102 30 -48 0 -69 -5 -96 -24z m160 -98 c11 -13 19 -39 20 -60 0 -29 -7 -42 -32 -63 -38 -33 -71 -28 -112 17 -23 25 -27 37 -23 64 6 35 21 56 47 67 28 12 81 -2 100 -25z m-540 -572 c58 -17 61 -39 12 -92 -62 -67 -87 -79 -170 -79 -62 0 -76 3 -88 20 -15 19 -13 20 63 26 80 7 179 41 168 59 -6 10 -33 15 -127 25 -39 4 -58 11 -58 20 0 32 120 45 200 21z"/> <path d="M3190 6281 c-11 -16 -20 -34 -20 -41 0 -7 -6 -26 -14 -43 -25 -56 -46 -135 -46 -169 1 -110 151 -318 230 -318 16 0 30 1 31 3 0 1 3 72 5 157 4 133 2 161 -13 200 -24 61 -124 228 -140 234 -7 3 -21 -8 -33 -23z m74 -214 c25 -43 35 -157 14 -157 -18 0 -68 96 -68 132 0 64 25 76 54 25z"/> <path d="M2150 4262 c-98 -27 -159 -128 -136 -228 9 -38 23 -60 64 -101 l52 -53 68 0 c45 0 75 5 90 16 12 8 29 14 36 12 19 -4 276 -250 276 -263 -1 -5 -23 -21 -49 -34 -27 -13 -54 -34 -61 -46 -11 -21 -9 -29 21 -72 45 -63 119 -143 144 -154 11 -5 27 -13 35 -18 55 -32 251 -49 283 -23 6 5 26 13 43 16 26 6 36 1 67 -29 l36 -35 326 0 c206 0 333 4 346 10 28 16 24 48 -8 61 -16 7 -37 15 -48 20 -17 7 -268 17 -505 19 l-75 1 -30 46 c-16 26 -32 52 -34 57 -10 25 -73 101 -103 123 -64 48 -210 103 -274 103 -26 0 -37 6 -48 28 -8 15 -73 85 -145 155 l-131 129 6 52 c5 40 2 61 -11 87 -23 43 -47 75 -77 99 -26 20 -118 33 -158 22z m114 -126 c31 -28 34 -70 9 -115 -36 -62 -119 -48 -149 24 -36 86 71 156 140 91z m611 -607 c24 -23 3 -26 -35 -4 -14 8 -40 14 -57 15 -18 0 -33 5 -33 11 0 19 102 1 125 -22z m-168 -54 c26 -9 60 -22 75 -30 14 -8 35 -15 46 -15 10 0 34 -8 53 -17 l34 -18 -39 -3 c-64 -5 -166 27 -204 65 -38 37 -33 40 35 18z"/> <path d="M1987 7402 c-22 -24 -21 -34 3 -62 17 -20 24 -22 45 -12 18 8 25 19 25 40 0 50 -41 69 -73 34z"/> <path d="M6917 7400 c-26 -37 3 -88 42 -75 24 7 38 51 24 74 -15 25 -49 25 -66 1z"/> <path d="M1627 7074 c-20 -27 -16 -53 13 -79 24 -22 47 -16 67 16 14 23 14 31 3 58 -16 40 -56 42 -83 5z"/> <path d="M7268 7075 c-10 -13 -18 -30 -18 -37 1 -20 36 -58 54 -58 25 0 48 44 40 76 -12 50 -48 59 -76 19z"/> <path d="M1691 1824 c-10 -22 -9 -31 4 -50 19 -29 39 -30 65 -4 25 25 25 42 2 63 -27 25 -57 21 -71 -9z"/> <path d="M7210 1835 c-18 -22 -2 -69 26 -73 28 -4 46 20 42 55 -2 22 -9 29 -29 31 -15 2 -31 -4 -39 -13z"/> <path d="M2100 1532 c-29 -24 -22 -63 15 -80 23 -11 27 -9 37 13 12 28 2 75 -18 82 -6 2 -21 -5 -34 -15z"/> <path d="M6851 1524 c-19 -24 -19 -28 -6 -54 19 -37 32 -45 51 -29 25 20 35 56 24 84 -12 33 -43 32 -69 -1z"/> <path d="M2025 1510 c-8 -13 4 -50 16 -50 11 0 29 41 22 53 -6 10 -31 9 -38 -3z"/> </g> </svg> 